<?xml version="1.0" encoding="utf-8"?>
<!-- Svg Vector Icons : http://www.onlinewebfonts.com/icon -->
<!DOCTYPE svg PUBLIC "-//W3C//DTD SVG 1.1//EN" "http://www.w3.org/Graphics/SVG/1.1/DTD/svg11.dtd">
<svg version="1.1" xmlns="http://www.w3.org/2000/svg" xmlns:xlink="http://www.w3.org/1999/xlink" x="0px" y="0px" viewBox="0 0 1000 1000" enable-background="new 0 0 1000 1000" xml:space="preserve">
<metadata> Svg Vector Icons : http://www.onlinewebfonts.com/icon </metadata>
<g><g><path d="M895.3,906.2l-65,65c-11.6,11.5-45.6,18.8-46.6,18.8c-205.6,1.7-403.6-79-549.1-224.5C88.6,619.6,7.8,420.8,10,214.5c0-0.1,7.4-33.1,19-44.6l65-65c23.8-23.8,69.5-34.6,101.4-23.9l13.7,4.6c32,10.6,65.4,45.9,74.2,78.4L316.1,284c8.9,32.5-3.1,78.8-26.9,102.6l-43.4,43.4C288.4,588,412.2,711.7,570,754.4l43.4-43.4c23.8-23.8,70.2-35.7,102.8-26.9l120.1,32.8c32.4,8.8,67.7,42.2,78.4,74.2l4.5,13.7C929.8,836.7,919.1,882.4,895.3,906.2z M561.2,500h61.3c0-67.7-54.9-122.5-122.5-122.5v61.3C533.8,438.7,561.2,466.2,561.2,500z M806.2,500c0-169.2-137.1-306.3-306.3-306.3V255c135.1,0,245,109.9,245,245H806.2z M500,10v61.3c236.4,0,428.8,192.4,428.8,428.8H990C990,229.4,770.6,10,500,10z"/></g><g></g><g></g><g></g><g></g><g></g><g></g><g></g><g></g><g></g><g></g><g></g><g></g><g></g><g></g><g></g></g>
</svg>